<mxfile host="app.diagrams.net" modified="2023-11-27T13:33:06.118Z" agent="Mozilla/5.0 (Macintosh; Intel Mac OS X 10_15_7) AppleWebKit/537.36 (KHTML, like Gecko) Chrome/116.0.0.0 Safari/537.36" version="22.1.4" etag="tj0dJZ5P4YelyE6Gs28D" type="github">
  <diagram name="Page-1" id="EYJdBNUsVqpiAdJc6vGY">
    <mxGraphModel>
      <root>
        <mxCell id="0" />
        <mxCell id="1" parent="0" />
      </root>
    </mxGraphModel>
  </diagram>
</mxfile>
